{"title":"Scream 4 2011 DVD9rip English Klam","uid":6720273,"size":1444564914,"categoryP":"video","categoryS":"movies","magnet":"?xt=urn:btih:2fd1429e8b1410de4de7d9fa0eb873cc8d71b246&amp;dn=Scream+4+2011+DVD9rip+English+Klam&amp;tr=udp%3A%2F%2Ftracker.openbittorrent.com%3A80&amp;tr=udp%3A%2F%2Fopen.demonii.com%3A1337&amp;tr=udp%3A%2F%2Ftracker.coppersurfer.tk%3A6969&amp;tr=udp%3A%2F%2Fexodus.desync.com%3A6969","seeders":2,"leechers":0,"uploader":"Klambake","files":-1,"time":1317763689,"description":"With: Neve Campbell, David Arquette and Courteney Cox\n\nTien jaar is er verstreken sinds Sidney Prescott (Neve Campbell) haar laatste confrontatie had met de gemaskerde moordenaar Ghostface. Ze leeft nu geÃƒÂ¯soleerd en ze heeft ze een boek geschreven dat veel lovende kritieken heeft ontvangen. Ze wordt echter uit haar dagelijkse routine getrokken als Ghostface weer verschijnt in Michigan, met als gevolg dat Sidney weer herenigd wordt met Dewey (David Arquette) en Gale (Courtney Cox).\n\nTen years have passed, and Sidney Prescott, who has put herself back together thanks in part to her writing, is visited by the Ghostface Killer. \n\n------------------ Dutch Friends ------------------\nYou can find my Friends at: http://www.Film-Test.nl \n------ They got my dutch subs ----- and more ------\n\nGeneral:\n\nComplete name                    : Scream 4\\Scream 4.avi\nFormat                           : AVI\nFormat/Info                      : Audio Video Interleave\nFile size                        : 1.35 GiB\nDuration                         : 1h 46mn\nOverall bit rate                 : 1 813 Kbps\n\nVideo:\n\nFormat                           : MPEG-4 Visual\nFormat profile                   : Simple@L3\nFormat settings, BVOP            : No\nFormat settings, QPel            : No\nFormat settings, GMC             : No warppoints\nFormat settings, Matrix          : Default (H.263)\nCodec ID                         : XVID\nCodec ID/Hint                    : XviD\nDuration                         : 1h 46mn\nBit rate                         : 1 354 Kbps\nWidth                            : 720 pixels\nHeight                           : 304 pixels\nDisplay aspect ratio             : 2.35:1\nFrame rate                       : 25.000 fps\nColor space                      : YUV\nChroma subsampling               : 4:2:0\nBit depth                        : 8 bits\nScan type                        : Progressive\nBits/(Pixel*Frame)               : 0.247\nStream size                      : 1.00 GiB (75%)\nWriting library                  : XviD 1.1.2 (UTC 2006-11-01)\n\nAudio:\n\nFormat                           : AC-3\nFormat/Info                      : Audio Coding 3\nMode extension                   : CM (complete main)\nCodec ID                         : 2000\nDuration                         : 1h 46mn\nBit rate mode                    : Constant\nBit rate                         : 448 Kbps\nChannel(s)                       : 6 channels\nChannel positions                : Front: L C R, Side: L R, LFE\nSampling rate                    : 48.0 KHz\nBit depth                        : 16 bits\nStream size                      : 340 MiB (25%)\nAlignment                        : Aligned on interleaves\nInterleave, duration             : 32 ms (0.80 video frame)\n\n\n","torrent":{"xt":"urn:btih:2fd1429e8b1410de4de7d9fa0eb873cc8d71b246","amp;dn":"Scream+4+2011+DVD9rip+English+Klam","amp;tr":["udp%3A%2F%2Ftracker.openbittorrent.com%3A80","udp%3A%2F%2Fopen.demonii.com%3A1337","udp%3A%2F%2Ftracker.coppersurfer.tk%3A6969","udp%3A%2F%2Fexodus.desync.com%3A6969"],"infoHash":"2fd1429e8b1410de4de7d9fa0eb873cc8d71b246","infoHashBuffer":{"type":"Buffer","data":[47,209,66,158,139,20,16,222,77,231,217,250,14,184,115,204,141,113,178,70]},"announce":[],"urlList":[]}}